<svg xmlns="http://www.w3.org/2000/svg" xmlns:xlink="http://www.w3.org/1999/xlink" viewBox="0 0 68 68"><style type="text/css"> .tl67_st0{fill:#FFFFFF;} .tl67_st1{fill:#003F63;} </style><path class="tl67_st0" d="M66.8 43H1.2C5.2 57.4 18.3 68 34 68S62.8 57.4 66.8 43z"/><path class="tl67_st1" d="M34 0C15.2 0 0 15.2 0 34c0 3.1 .4 6.1 1.2 9h65.6c.8 -2.9 1.2 -5.9 1.2 -9C68 15.2 52.8 0 34 0z"/><path class="tl67_st0" d="M16.4 32.7c0 1.8 -1 2.7 -3.2 2.7H9.7v-6.9h3.4c2.7 0 3.3 1.3 3.3 2.7V32.7L16.4 32.7zM17.8 32.7v-1.2c0 -3.8 -3 -3.9 -4.9 -3.9H8.3v8.9h5C17.2 36.5 17.8 34.4 17.8 32.7"/><path class="tl67_st0" d="M25.6 34.3c0 .5 0 1 -.6 1.2c-.3 .1 -.8 .2 -1.7 .2c-.8 0 -1.3 -.1 -1.6 -.3c-.2 -.1 -.3 -.3 -.3 -.8c0 -.5 .1 -.8 .4 -1c.3 -.1 .6 -.1 1.6 -.1h2.2L25.6 34.3L25.6 34.3zM26.9 36.5V33c0 -.7 0 -1.1 -.1 -1.5c-.1 -.3 -.2 -.6 -.5 -.8c-.6 -.5 -2.2 -.5 -3 -.5c-.6 0 -2.2 .1 -2.8 .6c-.2 .2 -.2 .4 -.2 .6c0 .2 0 .4 0 .6h1.3c0 -.2 .1 -.5 .2 -.7c.2 -.2 .5 -.2 1.4 -.2c1 0 1.7 0 2.1 .2c.3 .2 .3 .5 .3 .8v.6h-3c-.8 0 -1.8 0 -2.3 .7c-.2 .3 -.3 .7 -.3 1.2c0 1.5 .9 2 3.2 2c1.2 0 2 -.2 2.5 -.6l.1 .5H26.9"/><path class="tl67_st0" d="M35 36.5v-3.4c0 -1.2 -.1 -1.4 -.3 -1.6c-.3 -.2 -.8 -.3 -1.6 -.3c-.7 0 -1.5 .1 -2.2 .3v5.1h-1.3v-6.2h1.2l.1 .4c.3 -.1 .5 -.3 .8 -.3c.4 -.1 1 -.2 1.8 -.2c.9 0 1.5 .1 2 .4c.5 .2 .8 .6 .9 1.1c.1 .3 .1 .6 .1 1.3v3.6H35"/><path class="tl67_st0" d="M44.9 36.1c-.6 .3 -1.6 .4 -2.9 .4c-.9 0 -1.7 -.1 -2.2 -.2c-.6 -.1 -.9 -.4 -1 -1c0 -.3 0 -.5 0 -.9h1.3c0 .3 0 .4 .1 .5c0 .3 0 .4 .4 .6c.3 .1 .9 .1 1.6 .1c.9 0 1.4 -.1 1.8 -.3c.3 -.1 .4 -.3 .4 -.8c0 -.5 -.1 -.7 -.6 -.8c-.2 0 -.3 0 -.5 0c-.1 0 -.4 0 -.9 0c-.2 0 -.5 0 -.8 0c-1.3 -.1 -2.7 -.1 -2.7 -1.7c0 -1.4 .9 -1.9 3.2 -1.9c.6 0 1.3 0 1.8 .1c.5 .1 .9 .2 1.2 .3c.3 .2 .4 .5 .4 1c0 .1 0 .3 0 .5h-1.3l-.1 -.3c-.1 -.3 -.1 -.4 -.2 -.5c-.2 -.1 -.8 -.2 -1.6 -.2s-1.3 0 -1.6 .2c-.3 .1 -.5 .3 -.5 .8c0 .3 .1 .5 .3 .6c.3 .2 2.2 .2 2.8 .2c.7 0 1.1 .1 1.5 .2c.7 .2 1 .7 1 1.6C45.7 35.4 45.5 35.8 44.9 36.1"/><path class="tl67_st0" d="M53.1 36.5l-3.2 -2.9h-.5v2.9h-1.3v-8.9h1.3v5.1h.5l2.7 -2.4h1.6L51.1 33l3.9 3.5H53.1z"/><path class="tl67_st0" d="M61.6 32.8h-4.3c0 -.8 .2 -1.1 .5 -1.4c.3 -.2 .9 -.3 1.7 -.3c1.2 0 1.7 .3 1.9 .8C61.5 32.1 61.6 32.3 61.6 32.8zM62.8 34.6h-1.3c0 .2 -.1 .7 -.2 .9c-.2 .2 -.6 .3 -1.7 .3c-1.1 0 -1.6 -.1 -1.9 -.4c-.2 -.2 -.4 -.7 -.4 -1.4v-.2h5.6c0 -.3 0 -.4 0 -.6c0 -1 -.1 -1.6 -.6 -2c-.5 -.5 -1.5 -.8 -2.8 -.8c-1.7 0 -2.8 .4 -3.2 1.3c-.3 .5 -.4 1.2 -.4 2.1c0 1.4 .4 2.2 1.2 2.6c.5 .3 1.3 .4 2.4 .4c.9 0 1.6 0 2.4 -.3c.8 -.2 1 -.7 1 -1.1C62.8 35.2 62.8 34.9 62.8 34.6"/><path class="tl67_st1" d="M24.6 51.3c0 1.3 -.7 1.6 -2.3 1.6H19v-2.9h3.6C23.9 50.1 24.6 50.2 24.6 51.3L24.6 51.3L24.6 51.3zM26.4 55.5c0 -1.1 -.6 -1.9 -2.2 -2.2v0c1.2 -.3 1.8 -.9 1.8 -1.9c0 -1.6 -.8 -2.4 -3 -2.4h-5.6v9h5.9C25.3 58.1 26.4 57.2 26.4 55.5L26.4 55.5L26.4 55.5zM25 55.6c0 1.3 -.9 1.4 -2.3 1.4H19V54h3.9C24.5 54 25 54.5 25 55.6z"/><path class="tl67_st1" d="M33.8 55.8c0 .5 0 1 -.6 1.2c-.4 .1 -.8 .2 -1.7 .2c-.8 0 -1.3 -.1 -1.6 -.3c-.2 -.1 -.3 -.3 -.3 -.8c0 -.5 .1 -.8 .4 -1c.2 -.1 .6 -.1 1.6 -.1h2.2V55.8L33.8 55.8zM35.1 58.1v-3.5c0 -.7 0 -1.1 -.1 -1.5c-.1 -.4 -.2 -.6 -.5 -.8c-.7 -.5 -2.3 -.5 -3.1 -.5c-.6 0 -2.2 .1 -2.8 .6c-.2 .2 -.2 .4 -.2 .6c0 .2 0 .4 0 .7h1.3c0 -.2 .1 -.5 .2 -.7c.2 -.2 .5 -.2 1.4 -.2c1 0 1.8 0 2.1 .2c.3 .2 .3 .5 .3 .8v.6h-3c-.8 0 -1.8 0 -2.3 .7c-.2 .3 -.3 .7 -.3 1.2c0 1.5 .9 2 3.3 2c1.2 0 2 -.2 2.5 -.6l.1 .5H35.1"/><path class="tl67_st1" d="M43 58.1v-3.4c0 -1.2 -.1 -1.4 -.3 -1.7c-.3 -.2 -.8 -.3 -1.6 -.3c-.7 0 -1.5 .1 -2.2 .3v5.1h-1.3v-6.3h1.2l.1 .5c.3 -.1 .5 -.3 .8 -.3c.4 -.1 1 -.2 1.8 -.2c.9 0 1.5 .1 2 .4c.5 .2 .8 .6 .9 1.1c.1 .3 .1 .6 .1 1.3v3.6H43z"/><path class="tl67_st1" d="M51.8 58.1l-3.2 -3H48v3h-1.3v-9H48v5.1h.5l2.7 -2.4h1.6l-3.1 2.8l3.9 3.5H51.8"/></svg>