<svg xmlns="http://www.w3.org/2000/svg" viewBox="0 0 3485 1018">
  <rect width="3485" height="1018" fill="#15130F"/>
  <g transform="translate(-84.54 -49.63) scale(1.09089)">
  <path d="M160 128 H312 V704 A48 48 0 0 0 360 752 H416 A72 72 0 0 1 416 896 H352 A192 192 0 0 1 160 704 Z" fill="#B7C59E"/>
  <path d="M536 128 H688 V704 A48 48 0 0 0 736 752 H792 A72 72 0 0 1 792 896 H728 A192 192 0 0 1 536 704 Z" fill="#B7C59E"/>
  </g>
  <path d="M1210 217.8 H1338 V787.8 A36 36 0 0 0 1374 823.8 H1418 A52 52 0 0 1 1418 927.8 H1350 A140 140 0 0 1 1210 787.8 Z" fill="#F6F1E7"/>
  <path transform="translate(1420.9833333333333 927.8) scale(1 -1)" d="M70.3994140625 0V534.000244140625H198.402099609375V0ZM67.9993896484375 605.3995361328125V718.6004638671875H200.8021240234375V605.3995361328125Z" fill="#F6F1E7"/>
  <path d="M1748 217.8 H1876 V787.8 A36 36 0 0 0 1912 823.8 H1956 A52 52 0 0 1 1956 927.8 H1888 A140 140 0 0 1 1748 787.8 Z" fill="#F6F1E7"/>
  <path d="M2033 217.8 H2161 V787.8 A36 36 0 0 0 2197 823.8 H2241 A52 52 0 0 1 2241 927.8 H2173 A140 140 0 0 1 2033 787.8 Z" fill="#F6F1E7"/>
  <path transform="translate(2247.9833333333336 927.8) scale(1 -1)" d="M300.600830078125 -12Q220.800537109375 -12 162.10028076171875 22.4000244140625Q103.4000244140625 56.800048828125 71.29986572265625 119.7000732421875Q39.19970703125 182.60009765625 39.19970703125 267.0001220703125Q39.19970703125 351.400146484375 71.29986572265625 413.8001708984375Q103.4000244140625 476.2001953125 161.50030517578125 511.1002197265625Q219.6005859375 546.000244140625 298.200927734375 546.000244140625Q374.4013671875 546.000244140625 431.60162353515625 511.900146484375Q488.8018798828125 477.800048828125 520.1019897460938 413.7999267578125Q551.402099609375 349.7998046875 551.402099609375 259.999755859375V231.3995361328125H172.00244140625Q175.8023681640625 160.8004150390625 210.302001953125 125.60089111328125Q244.8016357421875 90.4013671875 302.200927734375 90.4013671875Q345.0003662109375 90.4013671875 373.300048828125 109.50103759765625Q401.5997314453125 128.6007080078125 412.9996337890625 163.8004150390625L543.8021240234375 155.600341796875Q522.402099609375 78.199951171875 457.70172119140625 33.0999755859375Q393.0013427734375 -12 300.600830078125 -12ZM172.00244140625 317.4002685546875H418.599609375Q414.5997314453125 382.3995361328125 381.90008544921875 413.79925537109375Q349.200439453125 445.198974609375 298.200927734375 445.198974609375Q246.801513671875 445.198974609375 213.3018798828125 412.29925537109375Q179.80224609375 379.3995361328125 172.00244140625 317.4002685546875Z" fill="#F6F1E7"/>
  <path transform="translate(2820.9833333333336 927.8) scale(1 -1)" d="M70.3994140625 0V534.000244140625H190.002197265625L194.80224609375 385.599365234375L184.402099609375 388.1993408203125Q196.4022216796875 464.9998779296875 229.70220947265625 499.50006103515625Q263.002197265625 534.000244140625 320.602294921875 534.000244140625H370.2021484375V424.3984375H320.4022216796875Q279.2021484375 424.3984375 252.3021240234375 412.298583984375Q225.402099609375 400.19873046875 211.902099609375 374.69891357421875Q198.402099609375 349.1990966796875 198.402099609375 307.5992431640625V0Z" fill="#F6F1E7"/>
  <path transform="translate(3193.9833333333336 927.8) scale(1 -1)" d="M70.3994140625 0V534.000244140625H198.402099609375V0ZM67.9993896484375 605.3995361328125V718.6004638671875H200.8021240234375V605.3995361328125Z" fill="#F6F1E7"/>
</svg>
